<svg xmlns="http://www.w3.org/2000/svg" width="498" height="559.997" viewBox="0 0 498 559.997"><path d="M1548.773,490.466,1534.1,479.32l-14.673,11.145-14.674-11.145-14.673,11.145-14.674-11.145-14.673,11.145L1446.06,479.32l-14.673,11.145-14.673-11.145-14.673,11.145-14.673-11.145-14.674,11.145L1358.02,479.32l-14.673,11.145-14.673-11.145L1314,490.466l-14.673-11.145-14.673,11.145L1269.98,479.32l-14.673,11.145-14.673-11.145-14.673,11.145-14.673-11.145-14.674,11.145-14.673-11.145-14.674,11.145-14.673-11.145-14.673,11.145-14.674-11.145-14.673,11.145L1093.9,479.32l-14.673,11.145L1065,478.993v549.525l14.227,10.472,14.673-10.8,14.673,10.8,14.673-10.8,14.674,10.8,14.673-10.8,14.673,10.8,14.674-10.8,14.673,10.8,14.674-10.8,14.673,10.8,14.673-10.8,14.673,10.8,14.673-10.8,14.673,10.8,14.673-10.8,14.674,10.8,14.673-10.8,14.674,10.8,14.673-10.8,14.673,10.8,14.673-10.8,14.673,10.8,14.673-10.8,14.673,10.8,14.673-10.8,14.673,10.8,14.673-10.8,14.674,10.8,14.673-10.8,14.674,10.8,14.673-10.8,14.673,10.8L1563,1028.517V478.992Z" transform="translate(-1065 -478.992)" fill="#ffede2"/></svg>