<svg xmlns="http://www.w3.org/2000/svg" width="23" height="23.995" viewBox="0 0 23 23.995"><path d="M527.205,606h18.59A2.239,2.239,0,0,0,548,603.731v-12.12a.651.651,0,0,0-.223-.49l-3.078-2.668V583.8a1.773,1.773,0,0,0-1.75-1.8H530.173a1.773,1.773,0,0,0-1.75,1.8v4.555l-3.2,2.767a.649.649,0,0,0-.223.49v12.12A2.238,2.238,0,0,0,527.205,606Zm18.588-1.284H527.205a.97.97,0,0,1-.955-.983V592.836l7.125,5.174-5.058,3.973a.652.652,0,0,0-.125.9.614.614,0,0,0,.875.129l5.378-4.225,1.75,1.284a.611.611,0,0,0,.722,0l1.75-1.284,5.38,4.217a.615.615,0,0,0,.875-.128.653.653,0,0,0-.125-.9l-5.047-3.965,7-5.082v10.8a.97.97,0,0,1-.955.98Zm.607-13.1-1.7,1.234V590.13Zm-16.227-8.321h12.78a.506.506,0,0,1,.5.513v9.943l-6.89,5.008-6.887-5.008V583.8A.506.506,0,0,1,530.173,583.288Zm-1.75,9.554-1.77-1.283,1.77-1.54Zm8.078,2.613h.16a.641.641,0,0,0,0-1.282h-.16a4.092,4.092,0,1,1,3.985-4.091v1.1a.7.7,0,0,1-1.392,0v-1.1a2.6,2.6,0,1,0-2.617,2.652,2.553,2.553,0,0,0,1.617-.565,1.918,1.918,0,0,0,2.647.768,2.005,2.005,0,0,0,1-1.759v-1.1a5.237,5.237,0,1,0-5.235,5.374Zm0-4a1.379,1.379,0,1,1,1.342-1.378h0A1.361,1.361,0,0,1,536.5,591.46Z" transform="translate(-525 -582.003)" fill="#f9623d"/></svg>