<svg xmlns="http://www.w3.org/2000/svg" width="256" height="32" viewBox="0 0 256 32">
  <defs>
    <style>
      .cls-1 {
        fill: #f9623d;
        fill-rule: evenodd;
      }
    </style>
  </defs>
  <path id="line-primary" class="cls-1" d="M962.474,1287.99a9.06,9.06,0,0,0-2.593.28,8.189,8.189,0,0,0-2.157.95,7.9,7.9,0,0,0-1.737,1.49,9.7,9.7,0,0,0-1.286,1.89,12.963,12.963,0,0,0-.925,2.18,13.512,13.512,0,0,0-.5,2.46,16.943,16.943,0,0,0-.06,2.57c0.027,0.85.1,1.71,0.19,2.56a23.758,23.758,0,0,0,.38,2.51,20.761,20.761,0,0,0,.619,2.39c0.07,0.22.151,0.44,0.228,0.67-1.108.74-2.231,1.46-3.445,2.12-1.235.67-2.5,1.32-3.807,1.91-1.259.58-2.525,1.14-3.843,1.65-1.184.44-2.379,0.87-3.615,1.24-1.038.31-2.1,0.6-3.183,0.81a22.677,22.677,0,0,1-2.741.4c-0.18.02-1.351,0.06-1.717,0.08a9.56,9.56,0,0,1-1.312-.08,6.874,6.874,0,0,1-1.293-.26,6.372,6.372,0,0,1-1-.42,5.46,5.46,0,0,1-.839-0.59c-0.128-.11-0.251-0.23-0.367-0.35,0.106-.05.216-0.09,0.32-0.14a6.919,6.919,0,0,0,1.527-1.06,3.307,3.307,0,0,0,.838-1.33,2.307,2.307,0,0,0-.033-1.4,2.985,2.985,0,0,0-.838-1.18,4.3,4.3,0,0,0-1.577-.8,5.66,5.66,0,0,0-2.861.05,4.6,4.6,0,0,0-1.471.68,3.383,3.383,0,0,0-1,1.07,3.433,3.433,0,0,0-.384,1.23,3.753,3.753,0,0,0,.109,1.3c0.006,0.02.014,0.05,0.02,0.07-0.223.04-.445,0.09-0.67,0.13q-1.385.255-2.786,0.45c-1.1.14-2.2,0.27-3.3,0.37-1.26.13-2.521,0.24-3.783,0.36-1.452.11-2.905,0.23-4.357,0.35-1.627.11-3.255,0.23-4.885,0.33-1.758.11-3.516,0.21-5.275,0.31-1.88.1-3.758,0.21-5.639,0.31-1.994.11-3.989,0.21-5.984,0.32-2.092.11-4.186,0.22-6.28,0.31-2.16.1-4.322,0.18-6.483,0.26q-3.352.105-6.706,0.2c-2.292.08-4.585,0.16-6.877,0.22-2.256.05-4.51,0.12-6.767,0.14-1.821,0-3.46,0-5.238-.05-1.858-.06-3.717-0.15-5.567-0.29-1.56-.13-3.121-0.27-4.668-0.47-1.251-.15-2.5-0.31-3.739-0.49-0.958-.12-1.927-0.2-2.884-0.32-0.682-.03-1.362.02-2.044-0.01a3.937,3.937,0,0,0-1.178,1.47c0.52,0.25.988,0.54,1.531,0.76,0.9,0.27,1.811.53,2.746,0.73,1.273,0.25,2.566.45,3.86,0.64q2.418,0.315,4.854.54c1.922,0.18,3.857.29,5.792,0.37,2.539,0.12,5.083.14,7.626,0.12q3.446-.03,6.887-0.15c2.3-.07,4.6-0.15,6.9-0.22q3.357-.105,6.713-0.22c2.181-.07,4.361-0.17,6.54-0.27,2.106-.09,4.211-0.21,6.317-0.32,2-.11,3.994-0.23,5.991-0.33,1.877-.12,3.757-0.22,5.634-0.33,1.773-.1,3.543-0.21,5.314-0.32,1.646-.11,3.291-0.24,4.934-0.38q2.2-.165,4.395-0.39c1.288-.11,2.57-0.23,3.852-0.37q1.73-.2,3.445-0.45c1.015-.14,2.016-0.33,3.011-0.53l0.309-.06c0.2,0.22.4,0.44,0.621,0.65a8.985,8.985,0,0,0,1.225.97,9.224,9.224,0,0,0,1.558.82,10.985,10.985,0,0,0,2.015.6,16.757,16.757,0,0,0,2.463.3,25.384,25.384,0,0,0,3.9-.13,31.708,31.708,0,0,0,3.251-.54c1.228-.25,2.409-0.6,3.583-0.96,1.326-.41,2.613-0.88,3.883-1.37,1.4-.54,2.762-1.13,4.1-1.75,1.387-.65,2.721-1.35,4.026-2.07,0.593-.34,1.173-0.69,1.744-1.04,0.059,0.11.11,0.22,0.173,0.33a16.932,16.932,0,0,0,1.155,1.75,18.914,18.914,0,0,0,1.263,1.51,15.5,15.5,0,0,0,1.38,1.28c0.443,0.35.907,0.69,1.39,1.01a14.158,14.158,0,0,0,1.511.84,16.957,16.957,0,0,0,1.637.64,13.333,13.333,0,0,0,1.811.46,14.562,14.562,0,0,0,1.873.23,28.518,28.518,0,0,0,2.924.06c0.656-.03,1.305-0.1,1.952-0.18,0.7-.1,1.38-0.24,2.061-0.38,0.765-.17,1.516-0.38,2.262-0.59,0.8-.23,1.572-0.5,2.337-0.78,0.749-.28,1.471-0.59,2.175-0.92,0.024-.01.049-0.03,0.073-0.04,0.21,0.1.426,0.21,0.642,0.3a17.091,17.091,0,0,0,1.6.62,16.518,16.518,0,0,0,2,.53,24.426,24.426,0,0,0,2.439.38c1.276,0.14,2.569.17,3.857,0.2,1.007,0.01,2.016,0,3.022-.01,1.071-.02,2.141-0.06,3.21-0.1,1.152-.04,2.3-0.1,3.444-0.17,1.27-.06,2.54-0.15,3.8-0.24,1.36-.1,2.71-0.21,4.06-0.33,1.39-.11,2.77-0.25,4.16-0.37,1.42-.14,2.84-0.26,4.26-0.39,1.45-.15,2.9-0.28,4.36-0.43,1.44-.14,2.87-0.29,4.31-0.44,1.4-.14,2.79-0.28,4.19-0.41,1.35-.13,2.71-0.25,4.07-0.37,1.32-.13,2.64-0.23,3.96-0.34,1.28-.09,2.55-0.18,3.83-0.26,1.22-.07,2.43-0.13,3.65-0.19,1.15-.06,2.3-0.11,3.45-0.16,1.07-.05,2.14-0.09,3.22-0.13l3.01-.09c0.95-.02,1.9-0.04,2.86-0.07,0.92-.01,1.84-0.04,2.76-0.04,0.9-.01,1.8,0,2.7-0.01,0.97,0.01,1.95-.01,2.92-0.02,1.11-.02,2.21-0.05,3.32-0.07,1.28-.03,2.56-0.04,3.84-0.06a15.184,15.184,0,0,0,4.11-.39,31.98,31.98,0,0,1,3.93-1.05,0.22,0.22,0,0,0-.04-0.13c-1.59-.28-3.15-0.6-4.68-1.02a17.153,17.153,0,0,0-4.42-.34c-1.3.02-2.59,0.05-3.89,0.08-1.09.03-2.18,0.04-3.28,0.07-0.95.01-1.91,0.01-2.86,0.02-0.91,0-1.83.02-2.74,0.03-0.93.02-1.87,0.03-2.81,0.04-0.96.03-1.93,0.05-2.89,0.08l-3.04.09c-1.09.04-2.18,0.07-3.27,0.13-1.16.05-2.33,0.1-3.49,0.16-1.23.06-2.47,0.12-3.7,0.2-1.31.09-2.61,0.17-3.91,0.28-1.34.11-2.68,0.22-4.03,0.34s-2.72.25-4.08,0.38c-1.41.13-2.82,0.27-4.23,0.41-1.43.15-2.86,0.3-4.3,0.44s-2.89.28-4.33,0.41c-1.42.13-2.83,0.27-4.25,0.4-1.37.13-2.75,0.24-4.12,0.37-1.33.11-2.66,0.22-3.99,0.32-1.24.09-2.48,0.16-3.71,0.24q-1.684.09-3.365,0.15c-1.03.04-2.061,0.07-3.092,0.08-0.949.01-1.9,0.02-2.846-.01,1.792,0.06-1.185-.01-1.417-0.06-0.677-.04-1.349-0.12-2.015-0.22-0.528-.1-1.057-0.19-1.564-0.33a12.311,12.311,0,0,1-1.255-.42,2.685,2.685,0,0,1-.248-0.11,0.505,0.505,0,0,0,.081-0.07,5.048,5.048,0,0,0,.952-1.28,3.942,3.942,0,0,0,.347-1.29,3.619,3.619,0,0,0-.081-1.05,2.73,2.73,0,0,0-.4-0.95,2.851,2.851,0,0,0-1.017-.84,4.241,4.241,0,0,0-2.528-.24,4.973,4.973,0,0,0-1.172.42,5.157,5.157,0,0,0-.894.56,4.8,4.8,0,0,0-.742.72,3.462,3.462,0,0,0-.53.89,3,3,0,0,0-.21.99,3.672,3.672,0,0,0,.094.97,3.99,3.99,0,0,0,.362.9,2.566,2.566,0,0,1-.255.12c-0.614.27-1.237,0.54-1.889,0.76-0.675.24-1.359,0.47-2.063,0.66-0.643.18-1.292,0.35-1.961,0.48a15.414,15.414,0,0,1-1.672.25c-0.5.05-1.013,0.08-1.523,0.08a3.5,3.5,0,0,0-.44.01h-0.022c-0.472-.03-0.944-0.05-1.411-0.11a10.455,10.455,0,0,1-1.263-.23,7.618,7.618,0,0,1-1.193-.41,7.854,7.854,0,0,1-1.123-.55,8.134,8.134,0,0,1-1.12-.78,10.57,10.57,0,0,1-1.131-.99,14.685,14.685,0,0,1-1.091-1.29,16.16,16.16,0,0,1-1.022-1.52,13.732,13.732,0,0,1-.847-1.7c0.705-.54,1.392-1.09,2.061-1.66a31.248,31.248,0,0,0,2.779-2.79,28.4,28.4,0,0,0,2.115-2.72,16.826,16.826,0,0,0,1.471-2.58,10.809,10.809,0,0,0,.789-2.49,8.121,8.121,0,0,0,.105-2.38,7.4,7.4,0,0,0-.521-2.12,6.242,6.242,0,0,0-1.062-1.76,7.4,7.4,0,0,0-1.547-1.36,6.4,6.4,0,0,0-2.184-.86A5.556,5.556,0,0,0,962.474,1287.99Zm-0.831,2.77a1.279,1.279,0,0,1,.519.05c0.2-.02.232,0.01,0.172,0.05,0.023,0.01.048,0.01,0.071,0.02a3.094,3.094,0,0,1,.919.7,4.792,4.792,0,0,1,.737,1.16,5.994,5.994,0,0,1,.406,1.6,7.525,7.525,0,0,1-.086,1.87,8.972,8.972,0,0,1-.684,2.04,17.313,17.313,0,0,1-1.339,2.25,26.144,26.144,0,0,1-1.96,2.48,30.093,30.093,0,0,1-2.245,2.21c-0.052-.21-0.108-0.43-0.152-0.64-0.154-.78-0.279-1.57-0.366-2.35-0.081-.81-0.157-1.62-0.193-2.43a18.37,18.37,0,0,1,.054-2.31,10.276,10.276,0,0,1,.416-2.1,10.451,10.451,0,0,1,.766-1.83,7.614,7.614,0,0,1,.969-1.42,4.7,4.7,0,0,1,1.093-.89,3.444,3.444,0,0,1,.921-0.34A0.128,0.128,0,0,1,961.643,1290.76Zm0.018,0.12a0.7,0.7,0,0,0,.673-0.02,1.054,1.054,0,0,0-.172-0.05,2.818,2.818,0,0,0-.345.03C961.762,1290.85,961.714,1290.87,961.661,1290.88Zm20.576,19.95s0.129,0.07.1,0.13c0,0.01,0,.02,0,0.03A0.4,0.4,0,0,1,982.237,1310.83Zm-56.341.16a0.2,0.2,0,0,1,.161.09,0.3,0.3,0,0,1,.04.21c-0.168-.02-0.3-0.07-0.293-0.17A0.124,0.124,0,0,1,925.9,1310.99Zm0.818,0.18c0.289,0.09-.086.16-0.44,0.14a0.394,0.394,0,0,1,.148-0.11A0.946,0.946,0,0,1,926.714,1311.17Zm57.2,0.09s0.15,0,.06.05a1.585,1.585,0,0,1-.383.1c0.013-.01.021-0.02,0.034-0.03A0.891,0.891,0,0,1,983.914,1311.26Z" transform="translate(-827 -1288)"/>
</svg>
