<svg id="logo" xmlns="http://www.w3.org/2000/svg" width="155" height="89" viewBox="0 0 155 89">
  <defs>
    <style>
      .cls-1 {
        fill: #120e0f;
        fill-rule: evenodd;
      }
    </style>
  </defs>
  <path class="cls-1" d="M904.8,57.557a19.522,19.522,0,0,1,4.721,1.937,15.752,15.752,0,0,1,4.214,3.6,22.019,22.019,0,0,1,3.349,5.645,34.113,34.113,0,0,1,2.183,8.04,64.078,64.078,0,0,1,.692,10.817,109.951,109.951,0,0,1-1.154,13.913l-9.394.631a75,75,0,0,0,1.43-17.049,42.838,42.838,0,0,0-.754-6.506,23.05,23.05,0,0,0-1.97-5.892,14.632,14.632,0,0,0-3.541-4.567,11.333,11.333,0,0,0-5.52-2.482,28.79,28.79,0,0,0-2.6,5.765,38.2,38.2,0,0,0-1.427,5.978,44.63,44.63,0,0,0-.527,5.874c-0.045,1.923-.008,3.736.1,5.45a63.919,63.919,0,0,0,1.967,11.913L886.434,101.8a66.776,66.776,0,0,1-.379-22.291A47.8,47.8,0,0,1,887.9,71.7a50.906,50.906,0,0,1,2.139-5.429q-1.588.422-3.354,1.029t-3.691,1.455l1.216-8.3q12.037-5.048,20.59-2.9m-6.835-17.049a2.944,2.944,0,0,0,1.654,2.081,9.012,9.012,0,0,0,3.4.848,26.277,26.277,0,0,0,4.527-.108c1.667-.169,3.347-0.419,5.053-0.758a107.862,107.862,0,0,0,13.418-3.577l-0.038,8.59a96.232,96.232,0,0,1-11.471,3.259,54.315,54.315,0,0,1-8.681,1.18,25.888,25.888,0,0,1-6.273-.4,16.609,16.609,0,0,1-4.233-1.434,8.36,8.36,0,0,1-4.615-6.313Zm56.614,50.641a6.331,6.331,0,0,0,2.054,1.622,14.709,14.709,0,0,0,2.308.945,12.024,12.024,0,0,0,2.6.549l-3.357,7.743a18.579,18.579,0,0,1-2.43-.672,20.2,20.2,0,0,1-2.328-.967,14.737,14.737,0,0,1-2.058-1.224,8.456,8.456,0,0,1-1.612-1.472,13.7,13.7,0,0,1-1.866,1.581,10.225,10.225,0,0,1-2.032,1.091,13.928,13.928,0,0,1-2.35.715,21.817,21.817,0,0,1-2.812.4,11.83,11.83,0,0,1-7.169-1.244,12.878,12.878,0,0,1-4.694-4.692A22.993,22.993,0,0,1,926.17,88.5a54.658,54.658,0,0,1-1.113-8.25A104.611,104.611,0,0,1,926.612,57.3l9.093,1.222a7.065,7.065,0,0,0-.392,1.831c-0.18,1.165-.354,2.657-0.525,4.484s-0.312,3.864-.42,6.119-0.142,4.535-.088,6.822,0.212,4.475.461,6.566A21.321,21.321,0,0,0,936,89.675a6.37,6.37,0,0,0,2.288,3.1,3.575,3.575,0,0,0,3.547-.064,7.085,7.085,0,0,0,3-2.715,18.152,18.152,0,0,0,2.03-4.483,38.107,38.107,0,0,0,1.262-5.554q0.455-2.988.666-6t0.229-5.789c0.018-1.853,0-3.489-.033-4.9-0.05-1.417-.1-2.545-0.151-3.389a5.957,5.957,0,0,1-.045-1.222l8.893-1.091a107.958,107.958,0,0,1,.587,11.869q-0.042,2.529-.211,5.321t-0.589,5.626a53.547,53.547,0,0,1-1.128,5.575,37.35,37.35,0,0,1-1.762,5.2m35.43-34.979a14.342,14.342,0,0,1,7.551,1.958,15.908,15.908,0,0,1,5.11,5.028,25.774,25.774,0,0,1,3.13,7.09,51.734,51.734,0,0,1,1.58,8.106,92.389,92.389,0,0,1-.51,22.017L996.3,99.948A83.758,83.758,0,0,0,998.023,82.4a49.666,49.666,0,0,0-.589-6.526,21.673,21.673,0,0,0-1.7-5.768,11.782,11.782,0,0,0-3.19-4.21A8.659,8.659,0,0,0,987.5,64.04a11.409,11.409,0,0,0-5.432.9,11.7,11.7,0,0,0-3.958,2.949,14.155,14.155,0,0,0-2.582,4.355,21.431,21.431,0,0,0-1.257,5.093,22.007,22.007,0,0,0-.026,5.135A17.2,17.2,0,0,0,975.356,87a9.038,9.038,0,0,0,2.158,3.24,4.663,4.663,0,0,0,3.145,1.284,7.925,7.925,0,0,0,2-.716,18,18,0,0,0,2.244-1.324,20.642,20.642,0,0,0,2.22-1.769,16.523,16.523,0,0,0,1.933-2.082l5.281,6.4a23,23,0,0,1-5.281,6.319,17.567,17.567,0,0,1-2.832,1.827,11.192,11.192,0,0,1-3.4,1.114,11.85,11.85,0,0,1-3.921-.063,14.173,14.173,0,0,1-4.407-1.622A12.568,12.568,0,0,1,970.3,95.8a23.6,23.6,0,0,1-3.037-5.855,30.462,30.462,0,0,1-1.617-7.113,29.15,29.15,0,0,1,.151-7.576,26.074,26.074,0,0,1,2.2-7.243,18.993,18.993,0,0,1,4.568-6.1A22.243,22.243,0,0,1,979.8,57.7a29.114,29.114,0,0,1,10.208-1.533m24.951,13.088a14.151,14.151,0,0,0,2.79,1.391,11.179,11.179,0,0,0,2.49.59,8.2,8.2,0,0,0,2.15-.024,9.039,9.039,0,0,0,1.76-.438,8.23,8.23,0,0,0,3.23-2.15l1.76,5.9a18.715,18.715,0,0,1-5.54,3.72,22.209,22.209,0,0,1-4.9,1.456,16.056,16.056,0,0,1-4.91,0Zm0,16.124a13.954,13.954,0,0,0,2.79,1.386,11.223,11.223,0,0,0,2.49.591,8.535,8.535,0,0,0,2.15-.019,8.978,8.978,0,0,0,1.76-.442,8.041,8.041,0,0,0,3.23-2.189l1.76,5.893a18.6,18.6,0,0,1-5.54,3.726,22.172,22.172,0,0,1-4.9,1.45,15.869,15.869,0,0,1-4.91,0ZM982.4,110.823l-5.68,16.78-6.416-9.5,6.186-7.279h-3.319l-5.105,6.293c-0.335.437-.63,0.832-0.9,1.206v-7.5h-2.641v17.018h2.641v-6.455l1.275-1.479,5.3,7.934h5.643l1.707-5.189h5.453l1.756,5.189h2.815l-5.784-17.018H982.4Zm2.036,5.24,1.493,4.4h-4.225l1.494-4.433c0.205-.644.4-1.331,0.607-2.114C983.984,114.6,984.181,115.307,984.437,116.063Zm18.813,1.921c0,1.986.03,3.743,0.15,5.573-0.69-1.37-1.49-2.776-2.43-4.266l-5.341-8.468h-2.718v17.018h2.519v-7.309c0-2.282-.034-4.026-0.114-5.731,0.667,1.317,1.511,2.789,2.609,4.547l5.3,8.493h2.55V110.823h-2.52v7.161Zm10.48-7.283a30.437,30.437,0,0,0-4.55.345l-0.22.033v16.684l0.23,0.028a34.877,34.877,0,0,0,3.88.2c3.27,0,5.85-.847,7.45-2.448a9.044,9.044,0,0,0,2.44-6.6,7.936,7.936,0,0,0-2.4-6.114C1019.03,111.4,1016.8,110.7,1013.73,110.7Zm-0.25,15.052a15.753,15.753,0,0,1-1.88-.086V113.084a12.278,12.278,0,0,1,2.22-.173,6.574,6.574,0,0,1,4.86,1.666,6.025,6.025,0,0,1,1.54,4.436C1020.22,123.359,1017.83,125.753,1013.48,125.753Zm18.72-14.93h-2.93l-5.76,17.018h2.74l1.71-5.189h5.45l1.76,5.189h2.82L1032.26,111Zm-0.89,5.24,1.49,4.4h-4.23l1.5-4.433c0.2-.643.4-1.329,0.6-2.114C1030.85,114.6,1031.05,115.307,1031.31,116.063Z" transform="translate(-883 -39)"/>
</svg>
