<svg xmlns="http://www.w3.org/2000/svg" width="134" height="77" viewBox="0 0 134 77">
  <defs>
    <style>
      .cls-1 {
        fill: #f9623d;
        fill-rule: evenodd;
      }
    </style>
  </defs>
  <path id="logo-footer" class="cls-1" d="M911.849,2784.07a16.7,16.7,0,0,1,4.081,1.67,13.619,13.619,0,0,1,3.643,3.11,19.069,19.069,0,0,1,2.9,4.89,29.412,29.412,0,0,1,1.887,6.95,55.7,55.7,0,0,1,.6,9.36,95.223,95.223,0,0,1-1,12.03l-8.121.55a64.925,64.925,0,0,0,1.236-14.75,37.035,37.035,0,0,0-.652-5.63,19.946,19.946,0,0,0-1.7-5.09,12.536,12.536,0,0,0-3.061-3.95,9.748,9.748,0,0,0-4.772-2.15,24.747,24.747,0,0,0-2.244,4.99,32.939,32.939,0,0,0-1.234,5.17,38.641,38.641,0,0,0-.455,5.08q-0.059,2.49.091,4.71a55.061,55.061,0,0,0,1.7,10.31l-8.77,1.02a57.8,57.8,0,0,1-.328-19.28,41.4,41.4,0,0,1,1.6-6.76,44.313,44.313,0,0,1,1.848-4.7c-0.915.25-1.884,0.54-2.9,0.89s-2.082.78-3.191,1.26l1.052-7.17q10.406-4.38,17.8-2.51m-5.909-14.75a2.554,2.554,0,0,0,1.429,1.8,7.819,7.819,0,0,0,2.943.73,22.788,22.788,0,0,0,3.913-.09c1.441-.15,2.894-0.37,4.369-0.66a93.537,93.537,0,0,0,11.6-3.09l-0.033,7.43a85.59,85.59,0,0,1-9.917,2.82,47.837,47.837,0,0,1-7.5,1.02,22.714,22.714,0,0,1-5.423-.35,14.116,14.116,0,0,1-3.659-1.24,7.224,7.224,0,0,1-3.99-5.46Zm48.943,43.8a5.521,5.521,0,0,0,1.776,1.41,13.827,13.827,0,0,0,2,.82,10.587,10.587,0,0,0,2.247.47l-2.9,6.7a16.521,16.521,0,0,1-2.1-.58,18.1,18.1,0,0,1-2.013-.84,13.05,13.05,0,0,1-1.78-1.06,7.21,7.21,0,0,1-1.393-1.27,12.569,12.569,0,0,1-1.613,1.37,8.954,8.954,0,0,1-1.757.94,12.258,12.258,0,0,1-2.031.62,17.842,17.842,0,0,1-2.431.35,10.206,10.206,0,0,1-6.2-1.08,11.072,11.072,0,0,1-4.058-4.06,19.8,19.8,0,0,1-2.3-6.08,47.175,47.175,0,0,1-.962-7.14,90.553,90.553,0,0,1,1.344-19.84l7.861,1.05a6.223,6.223,0,0,0-.338,1.59c-0.156,1.01-.306,2.3-0.455,3.88s-0.269,3.34-.362,5.29-0.123,3.92-.077,5.9,0.184,3.87.4,5.68a18.375,18.375,0,0,0,1.085,4.61,5.519,5.519,0,0,0,1.977,2.68,3.1,3.1,0,0,0,3.067-.06,6.109,6.109,0,0,0,2.593-2.35,15.638,15.638,0,0,0,1.755-3.88,32.777,32.777,0,0,0,1.091-4.8q0.393-2.58.576-5.19c0.121-1.73.187-3.41,0.2-5.01s0-3.01-.028-4.24c-0.044-1.23-.087-2.2-0.13-2.93a5.152,5.152,0,0,1-.039-1.06l7.688-.94a93.37,93.37,0,0,1,.508,10.26c-0.024,1.46-.086,3-0.183,4.61s-0.267,3.24-.509,4.86a46.659,46.659,0,0,1-.975,4.83,31.882,31.882,0,0,1-1.524,4.49m30.63-30.25a12.332,12.332,0,0,1,6.528,1.69,13.765,13.765,0,0,1,4.421,4.35,22.418,22.418,0,0,1,2.705,6.13,44.865,44.865,0,0,1,1.363,7.01,80.4,80.4,0,0,1-.44,19.05l-9.139-.36a72.638,72.638,0,0,0,1.491-15.19,43.11,43.11,0,0,0-.509-5.64,18.726,18.726,0,0,0-1.469-4.99,10.145,10.145,0,0,0-2.757-3.64,7.516,7.516,0,0,0-4.367-1.61,9.885,9.885,0,0,0-4.7.79,10.1,10.1,0,0,0-3.422,2.55,12.228,12.228,0,0,0-2.231,3.76,18.719,18.719,0,0,0-1.088,4.41,19.125,19.125,0,0,0-.023,4.44,14.87,14.87,0,0,0,.965,3.92,7.8,7.8,0,0,0,1.866,2.8,3.986,3.986,0,0,0,2.719,1.11,6.557,6.557,0,0,0,1.725-.62,14.932,14.932,0,0,0,1.94-1.14,18.16,18.16,0,0,0,1.919-1.53,14.188,14.188,0,0,0,1.671-1.8l4.565,5.53a19.922,19.922,0,0,1-4.565,5.47,15.6,15.6,0,0,1-2.448,1.58,9.772,9.772,0,0,1-2.937.96,10.478,10.478,0,0,1-3.39-.05,12.364,12.364,0,0,1-3.81-1.41,10.789,10.789,0,0,1-3.626-3.29,20.521,20.521,0,0,1-2.625-5.06,26.522,26.522,0,0,1-1.4-6.16,25.106,25.106,0,0,1,.13-6.55,22.586,22.586,0,0,1,1.9-6.27,16.442,16.442,0,0,1,3.95-5.28,19.266,19.266,0,0,1,6.255-3.64,24.971,24.971,0,0,1,8.825-1.32m21.577,11.32a12.541,12.541,0,0,0,2.41,1.2,9.257,9.257,0,0,0,2.15.51,6.671,6.671,0,0,0,1.85-.02,7.445,7.445,0,0,0,1.53-.38,7.211,7.211,0,0,0,2.79-1.86l1.52,5.11a16.2,16.2,0,0,1-4.79,3.21,18.542,18.542,0,0,1-4.23,1.26,13.758,13.758,0,0,1-4.25,0Zm0,13.95a12.541,12.541,0,0,0,2.41,1.2,10.4,10.4,0,0,0,2.15.51,7.544,7.544,0,0,0,1.85-.02,7.445,7.445,0,0,0,1.53-.38,6.991,6.991,0,0,0,2.79-1.9l1.52,5.1a16.3,16.3,0,0,1-4.79,3.23,18.986,18.986,0,0,1-4.23,1.25,13.758,13.758,0,0,1-4.25,0Zm-28.154,22-4.911,14.52-5.547-8.22,5.349-6.3h-2.869l-4.414,5.45c-0.29.38-.544,0.72-0.778,1.04v-6.49h-2.283v14.73h2.283v-5.59l1.1-1.28,4.582,6.87h4.878l1.476-4.49h4.714l1.519,4.49h2.434l-5-14.73h-2.534Zm1.76,4.54,1.291,3.81h-3.653l1.292-3.84c0.177-.56.347-1.15,0.525-1.83C980.305,2833.41,980.474,2834.03,980.7,2834.68Zm16.264,1.66c0,1.72.023,3.24,0.129,4.82-0.593-1.18-1.285-2.4-2.1-3.69l-4.618-7.33h-2.351v14.73H990.2v-6.33c0-1.97-.028-3.48-0.1-4.95,0.577,1.14,1.307,2.41,2.255,3.93l4.577,7.35h2.2v-14.73H996.96v6.2Zm9.06-6.3a26.135,26.135,0,0,0-3.94.3l-0.19.03v14.43l0.2,0.02a28.535,28.535,0,0,0,3.36.17c2.83,0,5.06-.73,6.44-2.12a7.772,7.772,0,0,0,2.11-5.7,6.875,6.875,0,0,0-2.07-5.29C1010.6,2830.64,1008.67,2830.04,1006.02,2830.04Zm-0.21,13.02a14.919,14.919,0,0,1-1.63-.07V2832.1a11.069,11.069,0,0,1,1.92-.15,5.716,5.716,0,0,1,4.2,1.44,5.233,5.233,0,0,1,1.33,3.84C1011.63,2840.99,1009.56,2843.06,1005.81,2843.06Zm16.18-12.92h-2.54l-4.98,14.73h2.38l1.47-4.49h4.72l1.52,4.49h2.43l-4.95-14.57Zm-0.78,4.54,1.3,3.81h-3.66l1.3-3.84c0.17-.55.34-1.15,0.52-1.83C1020.82,2833.41,1020.99,2834.03,1021.21,2834.68Z" transform="translate(-893 -2768)"/>
</svg>
